<svg xmlns="http://www.w3.org/2000/svg" viewBox="0 0 312.25 227.99"><defs><style>.cls-1{fill:#003581;}.cls-2{fill:#0796dd;}</style></defs><title>codereview</title><g id="Layer_2" data-name="Layer 2"><g id="Objects"><rect class="cls-1" x="250.06" y="147.86" width="29.88" height="81.51" transform="translate(-55.75 242.62) rotate(-45)"/><polygon class="cls-2" points="240 139.74 234.5 145.24 219.62 130.36 206.74 143.23 221.63 158.12 216.13 163.62 224.26 171.75 248.13 147.87 240 139.74"/><path class="cls-1" d="M156.51,0a80.91,80.91,0,1,0,80.91,80.91A80.91,80.91,0,0,0,156.51,0Zm0,143.43A62.49,62.49,0,0,1,102,111.59l28-28-8.13-8.13-24.8,24.8A62.52,62.52,0,0,1,210.4,49.21L166.56,93.05l8.13,8.13,40.86-40.86a62.52,62.52,0,0,1-59,83.1Z"/><rect class="cls-1" x="147.25" y="68.88" width="11.5" height="42.16" transform="translate(-18.8 134.54) rotate(-45)"/><rect class="cls-2" x="15" y="85.99" width="41.75" height="24"/><rect class="cls-2" y="43.99" width="38.25" height="24"/><rect class="cls-2" x="255.5" y="85.99" width="41.75" height="24" transform="translate(552.75 195.98) rotate(180)"/><rect class="cls-2" x="274" y="43.99" width="38.25" height="24" transform="translate(586.25 111.98) rotate(180)"/><circle class="cls-2" cx="134.25" cy="73.74" r="12.25"/><circle class="cls-2" cx="165.25" cy="102.49" r="12.25"/></g></g></svg>