<svg xmlns="http://www.w3.org/2000/svg" viewBox="0 0 532.79 532.74"><defs><style>.cls-1{fill:none;}.cls-2{fill:#009fe3;}.cls-3{fill:#ea7128;}.cls-4{fill:#003581;}</style></defs><title>Dashboard</title><g id="Layer_2" data-name="Layer 2"><g id="Objects"><path class="cls-1" d="M317.69,233.06q-13-11.28-25.78-22.72l-10.83,4.77c-12.58,5.55-27.22,1.09-35.72-8.5,0,0-8.53,4.08-21.29,10.06l.61,9.46c.88,13.72-8.34,25.93-20.27,30.61,0,0,1.82,19.14,3.82,43.58l10.79,1.6c13.6,2,23.6,13.6,25.68,26.25,0,0,13.38,1.57,32,3.94l3-6c6.11-12.32,20.2-18.27,32.87-16.35,0,0,7.09-15.48,16.67-35.77l-5.14-4.76C314,259.87,312.27,244.67,317.69,233.06Z"/><path class="cls-2" d="M131.6,219.43c-.8-6.52-.43-10.91.52-13.85-8.73,3.42-17.57,6.85-26.81,8.64C96.24,216,87,217,77.85,218c-16.22,1.7-32.49,2.91-48.76,4A240.82,240.82,0,0,1,74.68,119.59L54.81,104.42A266.87,266.87,0,0,0,25.52,380q4.85,10.27,10.56,20.11l21.62-12.56a241.16,241.16,0,0,1-26.28-66.31,245.54,245.54,0,0,1-6-42c23-3.38,45.94-6.86,68.75-11.21,7.58-1.44,15.2-2.9,22.62-5,9.47-2.72,18.63-6.73,27.7-10.53l.73-.31c-9.38-6.46-11.37-14.81-13.58-32.81Z"/><path class="cls-2" d="M227.65,162.6s-3.77,1.84-10,4.83a12.56,12.56,0,0,1,3.77,7.68l1.23,19.16.76,11.83.68,10.59c12.76-6,21.29-10.06,21.29-10.06,8.5,9.59,23.14,14,35.72,8.5l10.83-4.77q12.84,11.41,25.78,22.72c-5.42,11.61-3.7,26.81,6.4,36.16l5.14,4.76,9.6,8.89,8.7,8.05,14.08,13c3.68,3.4,10,3.85,14.4,1.75a6.44,6.44,0,0,0,4-4.35,36.55,36.55,0,0,0,.32-5.9c.07-1.48.32-2.48,1.8-3,1.8-.63,3.69-.9,5.46-1.63,2-.85,4.35-2.29,5.07-4.5s.21-4.31.4-6.46c.43-5,6-3.85,9.33-5.44a6.06,6.06,0,0,0,3.59-4.52,36.26,36.26,0,0,0,.34-5.91c0-1.29,0-3,1.2-3.83s3-.7,4.4-1.29c4.62-2,6.19-6.66,5.08-11.28a14.38,14.38,0,0,0-3.92-7.14l-9.1-8.43c4.41-.43,3.77-5.76,2.54-8.7-1.69-4-4.64-7.56-7.63-10.71a51.45,51.45,0,0,0-23.68-14.48,41,41,0,0,0-7.61-1.32l.19-.35A41.45,41.45,0,0,0,351,199.32l-3-2.6h0c-2.81-2.43-7.43-6.44-13.15-11.46a13,13,0,0,0,.31-3.52,6.28,6.28,0,0,0-2.78-5.38,48.39,48.39,0,0,0-4.95-2.41c-1.4-.69-2.15-1.34-2-3,.22-2.42.86-4.74.58-7.2s-1.12-4.37-3.21-5.58c-1.59-.92-3.42-1.37-5-2.33-4-2.48-.5-7.57-.94-11.19-.52-4.32-4.76-5.53-8.16-7.14-1.11-.53-2.6-1.15-2.84-2.51s.49-2.87.55-4.27a9,9,0,0,0-6.89-9.13,14.6,14.6,0,0,0-9.55.44l-15.17,6.69c1.14-3.53-2.5-6.24-5.54-6.81a12.79,12.79,0,0,0-2.41-.2,120.6,120.6,0,0,1-10.24-11.94c-3.33-4.62-6.33-9.49-9.25-14.38-6.22-10.41-12-21.06-17.73-31.76q-8.7-16.32-17-32.82a246,246,0,0,1,75.22-4.9,259.87,259.87,0,0,1,71.29,16l.13-.33.88.33,9-23.34A292.73,292.73,0,0,0,222.74,3.39a263.43,263.43,0,0,0-66.84,20.32,283.18,283.18,0,0,0-56.81,35c-10.28,8-20.42,16.43-29.52,25.8L87,101.44l.51.49a248.89,248.89,0,0,1,23.41-20.7,297.75,297.75,0,0,1,26.44-19.11q9.89-6.26,20.36-11.54C170.22,70.89,182.85,91.15,196,111c5.75,8.67,11.47,17.53,18.06,25.58h0a189.47,189.47,0,0,0,15.25,16.16m26.08-27.4-.17.09.09-.05Zm-16.87,12.4-2.29,2.56,92.89,53.45-.1.06Z"/><path class="cls-3" d="M165.56,376.42l-1.05-.16q0,.68,0,1.34A6.27,6.27,0,0,1,165.56,376.42Z"/><path class="cls-4" d="M168.43,294.42l19,2.82L199.14,299l9.08,1.35c-2-24.43-3.82-43.58-3.82-43.58,11.93-4.68,21.15-16.89,20.27-30.61l-.61-9.46-.68-10.59-.76-11.83-1.23-19.16c-.34-5.26-5-10.21-10.07-11.43a6.07,6.07,0,0,0-5.77,1.23c-1.49,1.23-2.66,2.79-4.14,4-1.2,1-2.13.77-3.44.08a30.48,30.48,0,0,0-5.47-2.61c-2-.61-4.37-.81-6.22.42-1.56,1-2.65,2.6-4,3.87A4.2,4.2,0,0,1,178,172c-1.72-.57-3.11-1.88-4.67-2.75s-3.91-1.61-5.81-.9-3.32,2.27-4.67,3.65c-1.07,1.09-2.29,2.75-3.81,3.23-1.15.37-2.26-.5-3.16-1.08a9,9,0,0,0-10.83.53,14.35,14.35,0,0,0-4.61,11l.93,14.46a7.12,7.12,0,0,0-5.38.34c-3.5,1.78-4.42,6.26-4.69,9.83-.4,5.42.51,10.91,1.31,16.26a70,70,0,0,0,2.81,12.62,25.33,25.33,0,0,0,6.35,10.21c4.28,4.07,9.85,6.6,15.26,8.78,0,0,1.7,16.48,3.49,38A12.43,12.43,0,0,1,168.43,294.42Z"/><path class="cls-4" d="M192.93,391.53c-19.12-1.2-26.49-4.85-28.69-8.34-.47,7.53-2.16,15-3.83,22.34-2.46,10.84-5.31,21.6-8.25,32.31-3.25,11.82-6.66,23.6-10.16,35.36a241.51,241.51,0,0,1-74.05-69.48l-.67.46L47.4,418A266.34,266.34,0,0,0,319.88,527.32l-5-24.49-1,.19,0-.19a239.06,239.06,0,0,1-77,3.1,241.58,241.58,0,0,1-41.73-9c4.68-22.24,9.24-44.52,13.21-66.9,2.33-13.16,4.92-26.52,5-39.92a68.5,68.5,0,0,1-20.46,1.38Z"/><path class="cls-4" d="M396.18,210c7.16,6.86,10.25,12.09,11,15.74a100.09,100.09,0,0,1,6.87-10.12c2.37-3,4.89-5.9,7.45-8.74,7-7.73,14.24-15.16,21.6-22.51,11.36-11.34,22.95-22.44,34.62-33.45A243.35,243.35,0,0,1,507,260.67l25-.61a267.72,267.72,0,0,0-43-139.12A265.23,265.23,0,0,0,443,67.33a268.5,268.5,0,0,0-54.36-37.48L377.06,52a242.26,242.26,0,0,1,66.67,51.13c-15,16.62-29.82,33.33-44.3,50.37-10.46,12.31-21.28,24.64-29.33,38.71q-1.31,2.29-2.57,4.59c13,1,23.68,8.38,28.64,13.14Z"/><path class="cls-4" d="M356.9,378.49c1.76-7.07,4.11-13.9,4.61-21.24.61-9-1.57-17.89-7.17-25.06,0,0,4.81-10.73,11.85-25.8A11.15,11.15,0,0,1,361.6,304l-14.08-13-8.7-8.05-9.6-8.89c-9.58,20.29-16.67,35.77-16.67,35.77-12.67-1.91-26.76,4-32.87,16.35l-3,6-5.94,12-5.26,10.61L257,371.91c-2.23,4.5-.86,10.69,2.42,14.33a6.41,6.41,0,0,0,5.32,2.53,41,41,0,0,0,5.85-1.39c1.42-.33,2.38-.29,3.26.94,1,1.43,1.76,3,2.83,4.41,1.27,1.66,3.12,3.47,5.26,3.85s4.29-.65,6.33-1.2c1.84-.49,3.63-.46,4.92,1.11,1.16,1.41,1.71,3.24,2.67,4.78s2.65,3.26,4.67,3.51a15.36,15.36,0,0,0,5.9-.92c1.4-.39,3.33-1.23,4.81-.79,1.26.37,1.74,1.91,2.31,2.93a9,9,0,0,0,11.43,3.9,14.61,14.61,0,0,0,7.49-6.64l6.77-13.65c.78,1.92,3.14,2.77,5.06,2.84a9.51,9.51,0,0,0,6.35-2.34c3.46-2.88,5.25-7.38,6.3-11.63Z"/><path class="cls-2" d="M265.49,354.72l5.26-10.61,5.94-12c-18.61-2.37-32-3.94-32-3.94C242.62,315.53,232.62,304,219,301.93l-10.79-1.6L199.14,299l-11.72-1.74-19-2.82c-5.18-.77-10.93,2.71-13.22,7.31a6.1,6.1,0,0,0-.15,5.89c.89,1.77,2.2,3.27,3.12,5,.71,1.34.39,2.18-.53,3.3a38.57,38.57,0,0,0-3.5,4.4c-1.08,1.79-2,4.12-1.35,6.21.59,1.93,2,3.44,3.08,5.13.92,1.51,1.3,3.11.32,4.69s-2.41,2.54-3.56,3.84a7.36,7.36,0,0,0-2.16,5.34c.21,2,1.43,3.73,2.48,5.33.88,1.33,2.22,2.85,2.48,4.48.2,1.21-.83,2.12-1.59,2.89a9.06,9.06,0,0,0-1.8,10.92,14.39,14.39,0,0,0,9.77,6.71l2.69.4,1.05.16a5.19,5.19,0,0,0-1.27,6.85,7.91,7.91,0,0,0,1.66,1.79,20.49,20.49,0,0,0,6.86,3.34,69,69,0,0,0,12.91,2.5,107.75,107.75,0,0,0,15.88.79,51.41,51.41,0,0,0,19.73-4.28,36.14,36.14,0,0,0,14.86-12.56s7.84.85,19.73,2.29a11.21,11.21,0,0,1,1-5.23Z"/><path class="cls-2" d="M507.82,277.74v0l-1,0c-1.74,37.13-13.42,74.51-33.4,108-21.06-9.34-42.17-18.59-63.56-27.15-7.58-3-15.21-6-23-8.56-8.62-2.8-17.62-4.34-26.52-5.89,2.57,9.47.78,19.27-1.83,28.51-1.84,6.52-3.12,15-9.63,18.63A130.56,130.56,0,0,1,363.14,395c3.42,1.16,6.77,2.54,10.08,4,9.42,4.06,18.62,8.63,27.77,13.27,12.5,6.35,24.87,12.94,37.19,19.64-29.91,31-67.46,54.5-107.75,67l7.41,23.88.91-.29.09.29a275.63,275.63,0,0,0,60.45-27.15A283.1,283.1,0,0,0,495,400.18a266.66,266.66,0,0,0,28.45-64.92,248.13,248.13,0,0,0,9.3-56.35Z"/></g></g></svg>