<svg xmlns="http://www.w3.org/2000/svg" viewBox="0 0 200.17 235.09"><defs><style>.cls-1{fill:#0796dd;}.cls-2{fill:#003581;}</style></defs><title>easy</title><g id="Layer_2" data-name="Layer 2"><g id="Layer_1-2" data-name="Layer 1"><path class="cls-1" d="M56.53,0V103.8H83.18l-6,35.34L104,103.8h61.69V0Zm73.09,41.36-19.7,24a5.37,5.37,0,0,1-4,2,.51.51,0,0,1-.21,0,5.44,5.44,0,0,1-3.94-1.7l-8.95-9.36a5.45,5.45,0,0,1,7.88-7.52l4.69,4.93L121.2,34.46a5.44,5.44,0,1,1,8.41,6.9Z"/><path class="cls-2" d="M186.13,167c-17.4-14.67-30.39-15.72-30.39-15.72l-50.19.18-19.78.07c1,8.83,6,13.43,12.62,15.85h39.19c11.29,0,11.29,17.5,0,17.5H70.18L52.69,154.33c-10-8.41-18.71-2.47-19.46,5.92,0,0,2,3.35,5.45,8.49L17.1,156.81A10.7,10.7,0,0,0,4.3,174s71.58,47.34,105.19,58.23c2.85.92,90.67,2.88,90.67,2.88V167Z"/></g></g></svg>