<svg xmlns="http://www.w3.org/2000/svg" viewBox="0 0 343.34 253.18"><defs><style>.cls-1{fill:#009fe3;}.cls-2{fill:#003581;}</style></defs><title>fast_1</title><g id="Layer_2" data-name="Layer 2"><g id="Objects"><path class="cls-1" d="M334.24,74.74,185.86,68.83c-.38-.38-.77-.74-1.16-1.11l158.64-6L167.76,55.19a80.91,80.91,0,1,0-3,143.16l87.58-6.66-69.68-5.54c.71-.64,1.39-1.29,2.08-2l76.7-5.5-67.56-5q1.1-1.51,2.14-3.07l74.51-5-69-4.66q.86-1.79,1.63-3.62l76.48-4.71-73.25-4.55q.54-1.89,1-3.81l81.36-4.64L209,135.15c.14-1.25.25-2.5.33-3.76l88.54-4.67-88.45-4.67c-.06-1.19-.15-2.36-.26-3.53l97.8-4.79-99.28-4.86c-.23-1.06-.46-2.11-.73-3.15l109.1-5L203.59,95.61Q203,94.28,202.46,93l122.69-5.24L196.66,82.27c-.43-.66-.85-1.32-1.29-2ZM66.08,126a62.52,62.52,0,1,1,62.52,62.52A62.52,62.52,0,0,1,66.08,126Z"/><polygon class="cls-2" points="157.99 150.69 134.92 127.62 134.92 89.74 116.54 89.74 116.54 136.16 117.14 136.16 144.84 163.85 157.99 150.69"/><path class="cls-2" d="M160,213.22A92.45,92.45,0,1,1,160,40V2.88L151.11,0,137.94,22.75c-3.38-.33-6.85-.5-10.36-.5a101.19,101.19,0,0,0-10.36.52L104,0,72.22,10.4l2.73,26.13A103.77,103.77,0,0,0,58.19,48.75l-24-10.65L14.51,65.16,32.1,84.71a102.87,102.87,0,0,0-6.4,19.73L0,110l0,33.44,25.7,5.49a103.16,103.16,0,0,0,6.42,19.71L14.59,188.16l19.69,27,24-10.67a104.77,104.77,0,0,0,16.76,12.18l-2.68,26.15,31.81,10.32,13.15-22.75c3.42.33,6.89.5,10.38.5s7-.19,10.38-.52l13.19,22.73,8.7-2.84Z"/></g></g></svg>