<?xml version="1.0" encoding="utf-8"?>
<!-- Generator: Adobe Illustrator 21.0.2, SVG Export Plug-In . SVG Version: 6.00 Build 0)  -->
<svg version="1.1" id="Capa_1" xmlns="http://www.w3.org/2000/svg" xmlns:xlink="http://www.w3.org/1999/xlink" x="0px" y="0px"
	 viewBox="0 0 278 406.7" style="enable-background:new 0 0 278 406.7;" xml:space="preserve">
<g>
	<path d="M277.6,74.7c-0.1-5-2.2-9.9-5.7-13.4l-55-55c-3.6-3.6-8.7-5.7-13.8-5.7S193,2.7,189.4,6.3L6.1,189.6
		c-3.6,3.6-5.7,8.7-5.7,13.8s2.1,10.2,5.7,13.8l183.3,183.3c3.6,3.6,8.7,5.7,13.8,5.7s10.2-2.1,13.8-5.7l55-55
		c3.6-3.6,5.7-8.7,5.7-13.7s-2.1-10.1-5.7-13.7L157.3,203.3L271.9,88.8C275.6,85.1,277.7,79.9,277.6,74.7L277.6,74.7z"/>
</g>
</svg>
