<svg xmlns="http://www.w3.org/2000/svg" xmlns:xlink="http://www.w3.org/1999/xlink" viewBox="0 0 1197.12 280.53"><defs><style>.cls-1{fill:#0796dd}.cls-2{fill:#003581}</style><linearGradient id="linear-gradient" x1="-6928.18" y1="-1184.39" x2="-6905.52" y2="-1184.39" gradientTransform="matrix(0 1 1 0 1453.93 6987.39)" gradientUnits="userSpaceOnUse"><stop offset="0" stop-color="#fff" stop-opacity="0"/><stop offset="1" stop-color="#fff"/></linearGradient><linearGradient id="linear-gradient-2" x1="-8220.41" y1="6053.73" x2="-8197.9" y2="6053.73" gradientTransform="matrix(1 0 0 -1 8478.72 6124.27)" xlink:href="#linear-gradient"/><linearGradient id="linear-gradient-3" x1="-4853.24" y1="8174.25" x2="-4830.38" y2="8174.25" gradientTransform="scale(1 -1) rotate(45 7659.414 10190.24)" xlink:href="#linear-gradient"/><linearGradient id="linear-gradient-4" x1="-9087.91" y1="2153.95" x2="-9065.13" y2="2153.95" gradientTransform="matrix(.71 .71 .71 -.71 5160.55 8015.7)" xlink:href="#linear-gradient"/><linearGradient id="linear-gradient-5" x1="307.49" y1="70.54" x2="361.93" y2="70.54" gradientTransform="matrix(-1 0 0 1 604.25 0)" xlink:href="#linear-gradient"/><linearGradient id="linear-gradient-6" x1="232.04" y1="50.4" x2="445.35" y2="50.4" gradientTransform="matrix(-1 0 0 1 604.25 0)" gradientUnits="userSpaceOnUse"><stop offset="0" stop-opacity=".4"/><stop offset="1" stop-opacity="0"/></linearGradient><linearGradient id="linear-gradient-7" x1="230.49" y1="17.98" x2="419.76" y2="89.62" gradientTransform="matrix(-1 0 0 1 604.25 0)" gradientUnits="userSpaceOnUse"><stop offset="0" stop-color="#0695dd"/><stop offset=".18" stop-color="#0694dc" stop-opacity=".99"/><stop offset=".32" stop-color="#068fd8" stop-opacity=".94"/><stop offset=".44" stop-color="#0588d1" stop-opacity=".87"/><stop offset=".56" stop-color="#057ec7" stop-opacity=".76"/><stop offset=".67" stop-color="#0471bb" stop-opacity=".63"/><stop offset=".78" stop-color="#0361ab" stop-opacity=".46"/><stop offset=".89" stop-color="#024e99" stop-opacity=".26"/><stop offset=".98" stop-color="#003984" stop-opacity=".04"/><stop offset="1" stop-color="#003581" stop-opacity="0"/></linearGradient><linearGradient id="linear-gradient-8" x1="232.04" y1="78.65" x2="383.93" y2="78.65" gradientTransform="matrix(-1 0 0 1 604.25 0)" gradientUnits="userSpaceOnUse"><stop offset="0" stop-color="#001136"/><stop offset=".35" stop-color="#011139" stop-opacity=".95"/><stop offset=".59" stop-color="#041144" stop-opacity=".79"/><stop offset=".78" stop-color="#081157" stop-opacity=".51"/><stop offset=".95" stop-color="#0f1171" stop-opacity=".13"/><stop offset="1" stop-color="#11117a" stop-opacity="0"/></linearGradient></defs><g id="Layer_2" data-name="Layer 2"><g id="Layer_1-2" data-name="Layer 1"><path id="Path_12" data-name="Path 12" class="cls-1" d="M559.06 221.2h24.39v-42.74h5.3a9.65 9.65 0 0 1 9.07 3.59l16.27 30.64c3.78 7 7 8.32 15.32 8.32h18.14V200.8h-6.43c-4.56 0-6.43-.76-8.13-3.59l-11.16-21a16 16 0 0 0-6.8-7.56v-.38a23.34 23.34 0 0 0 7.17-7.56l24.59-37.06h-27l-19.86 30.82a10.79 10.79 0 0 1-9.26 3.59h-7.36V96.38c0-9.07-4-11.15-13-11.15h-23.16v20.61h7.56a3.68 3.68 0 0 1 4.15 3.13.19.19 0 0 0 0 .08v1l.19 111.2zm94.17-48.79c0 30.06 23.64 51.06 53.33 51.06s53.52-21 53.52-51.06-23.64-51.07-53.52-51.07-53.32 21.19-53.32 51.07zm24.59 0a29.07 29.07 0 1 1 58.06-2.89v2.89a29.23 29.23 0 0 1-28 30.42h-1.16a28.85 28.85 0 0 1-29-28.72c.05-.55.07-1.11.1-1.7zm93.61 0c0 30.25 17 51.06 43.5 51.06a33.74 33.74 0 0 0 30.44-15.89h.38v3.59c0 5.67 3.22 10 12.1 10H880v-20.4h-7.56a3.81 3.81 0 0 1-4.16-3.4V98.26c0-9.07-4-13-13-13h-23.14v20.61h7.57a3.69 3.69 0 0 1 4.33 2.92.52.52 0 0 0 0 .11v18.5c0 3.21.19 5.67.19 5.67h-.38s-6.81-11.91-28.18-11.91c-25.72 0-44.26 20.05-44.26 51.25zM820 203.05c-14.34 0-24.21-12.1-24.21-30.64 0-19.3 11.16-30.26 24.59-30.26 16.27 0 24.21 14.94 24.21 30.07 0 21.56-11.91 30.82-24.58 30.82zm69-30.64a49.92 49.92 0 0 0 48.69 51.1h3.7a59.55 59.55 0 0 0 39.12-14.76l-10.21-16.83a44.53 44.53 0 0 1-27.42 11 28.14 28.14 0 0 1-29.34-26.29h67.32s.57-6.05.57-9.08c0-25.91-15.32-46.33-43.31-46.33-28.75.19-49.17 21.18-49.17 51.25zm25.72-12.67a23.3 23.3 0 0 1 23.83-19.67A18.91 18.91 0 0 1 957 159.51v.23zm90.28 48.41c0 9.27 3.78 13 12.86 13h23.07v-20.38h-7.56a3.81 3.81 0 0 1-4.16-3.4v-60.89c0-9.08-3.78-13-12.86-13h-23.26v20.61h7.56a3.82 3.82 0 0 1 4.16 3.41v.94l.19 59.76zm44.26-2.08a53.65 53.65 0 0 0 40.66 17.37c21.19 0 37.45-11.53 37.45-29.88 0-32.52-51.82-29.5-51.82-44.82 0-5.67 5.87-8.89 14.56-8.89 5.3 0 12.29 2.27 12.29 6.81v4.73h21.37V141.2c0-15.89-21-20.21-34.22-20.21-20.21 0-37.82 9.08-37.82 28.56 0 31.58 51.44 31.39 51.44 45.2 0 6.43-5.67 9.64-13.23 9.64a43.78 43.78 0 0 1-29.12-14.34l-11.54 16.08zm99.85-20.61c0 32.71 27 36.68 40.66 36.68a49.13 49.13 0 0 0 7.37-.56v-21.19a33.31 33.31 0 0 1-4.35.38 17.31 17.31 0 0 1-19.21-15.18 17.57 17.57 0 0 1-.08-3.16V142.9h22.13v-19.29h-22.12V97h-23.64v26.67h-13.24v19.29h12.67z"/><path id="Path_13" data-name="Path 13" class="cls-2" d="M1009.34 112.82a16 16 0 1 0-16.08-16.07 16.18 16.18 0 0 0 16.08 16.07z"/><circle class="cls-2" cx="269.54" cy="63.79" r="49.72"/><path class="cls-1" d="M258.31 43.18h22.51l15.94 16.03v22.67L280.7 97.9h-22.39l-15.99-16.02.05-22.67 15.94-16.03z"/><path class="cls-2" d="M262.46 53.36h14.16l10.02 10.06v14.24l-10.02 10.07h-14.16l-10.01-10.07V63.42l10.01-10.06z"/><path fill="url(#linear-gradient)" d="M296.76 81.87V59.21h-54.39l-.05 22.66h54.44z"/><path fill="url(#linear-gradient-2)" d="M280.82 43.18h-22.51V97.9h22.39l.12-54.72z"/><path fill="url(#linear-gradient-3)" d="M258.31 43.18l-15.94 16.03L280.7 97.9l16.06-16.02-38.45-38.7z"/><path fill="url(#linear-gradient-4)" d="M296.76 59.21l-15.94-16.03-38.5 38.7 15.99 16.02 38.45-38.69z"/><path fill="url(#linear-gradient-5)" d="M258.31 43.18h22.51l15.94 16.03v22.67L280.7 97.9h-22.39l-15.99-16.02.05-22.67 15.94-16.03z"/><path class="cls-2" d="M0 148.34a288.89 288.89 0 0 0 29.42 1.49 286.11 286.11 0 0 0 70.22-8.69 284.38 284.38 0 0 0 93.68-42.88q7.2-5 14.07-10.51 5.21-4.71 10.8-9a178.36 178.36 0 0 1 19.3-13c5-2.91 1.21-1.2 6.51-3.61 28.7-.76 68.73-1.52 68.73-1.52s43 .76 59.26 1.44A112.13 112.13 0 0 1 304.71 123v.96a27 27 0 0 1 20.65 44.21 179.71 179.71 0 0 0-12.94 112.36v-1.26a178.64 178.64 0 0 1 60.37-134l8.2-6.84a27 27 0 0 1 37.88 33.71l.41-.34a69.71 69.71 0 0 0 24.86-49.65c.06-1.27.1-2.56.1-3.86A69.78 69.78 0 0 0 429 74.74c-1-1.25-2-2.47-3.13-3.64a69.93 69.93 0 0 0-22.5-16.35l-.17-.08a180.74 180.74 0 0 0-23-20.11A177.94 177.94 0 0 0 281 .11Q277.75 0 274.49 0a178.17 178.17 0 0 0-83.42 20.6c-2.6 1.38-5.16 2.81-7.68 4.31q-2.12 1.44-4.26 2.85-3.6 2.37-7.29 4.62-5.7 3.49-11.57 6.73a284.2 284.2 0 0 1-59.05 24.33l-3.22.89a285.76 285.76 0 0 1-52.25 9.14A111.36 111.36 0 0 0 67.24 88c-11.09 4.2-26.46 9.73-42.89 14.88 2.77 1.6 5.63 3.09 8.54 4.46a111 111 0 0 0 34.69 9.79A111.39 111.39 0 0 1 0 148.34z"/><path d="M372.22 61.8S302.32 56.24 272 45.18s-24.32-16.39-52.91-3.29S158.9 66.6 158.9 66.6s42.35-7.66 58.78-14.88 27.07-9.23 54.39.26c28.23 9.81 100.14 9.61 100.15 9.82z" fill="url(#linear-gradient-6)"/><path d="M217.55 51.86c16.54-7 24.95-10 54 .12 15.31 5.32 44.15 7.64 66.27 8.75l8.43.38s-61.83.07-83.05.49c-32.28.63-71.31 2.76-97.05 5h-7.23c-.08-.07 42.01-7.67 58.63-14.74z" fill="url(#linear-gradient-7)"/><path d="M220.33 63.15a46.35 46.35 0 0 0 .37 5.85 113 113 0 0 1 31.38 1c18 3.1 42.48 15.43 54.82 26.33l.14.12 65.18-34.65-3.67-.09c-13.75-.19-30.25-.76-48.84-.81-16.55 0-34.62.78-53.57.62h-2.05c-15.25.48-29.95.98-43.76 1.63z" opacity=".69" fill="url(#linear-gradient-8)"/></g></g></svg>