<svg xmlns="http://www.w3.org/2000/svg" xmlns:xlink="http://www.w3.org/1999/xlink" viewBox="0 0 847.14 644.7"><defs><style>.cls-1{fill:none;}.cls-2,.cls-3{fill:#003581;}.cls-2{opacity:0.6;}.cls-4{fill:#0796dd;}.cls-5{opacity:0.5;}.cls-6{clip-path:url(#clip-path);}.cls-7{fill:url(#linear-gradient);}.cls-8{fill:url(#linear-gradient-2);}.cls-9{fill:url(#linear-gradient-3);}.cls-10{fill:url(#linear-gradient-4);}.cls-11{fill:#fff;}.cls-12{fill:#faf071;}.cls-13{fill:#ee1e3b;}.cls-14{fill:#4993cf;}</style><clipPath id="clip-path"><path class="cls-1" d="M695.73,314.65s-44.17,191.42-240.13,171c0,0-63.43-65.69-2.27-177.83C525.83,228.56,644.76,252.35,695.73,314.65Z"/></clipPath><linearGradient id="linear-gradient" x1="396.96" y1="67.44" x2="610.45" y2="476.8" gradientUnits="userSpaceOnUse"><stop offset="0" stop-color="#fff" stop-opacity="0.6"/><stop offset="0.41" stop-color="#fff" stop-opacity="0.59"/><stop offset="0.56" stop-color="#fff" stop-opacity="0.57"/><stop offset="0.67" stop-color="#fff" stop-opacity="0.52"/><stop offset="0.75" stop-color="#fff" stop-opacity="0.45"/><stop offset="0.83" stop-color="#fff" stop-opacity="0.37"/><stop offset="0.89" stop-color="#fff" stop-opacity="0.26"/><stop offset="0.95" stop-color="#fff" stop-opacity="0.14"/><stop offset="1" stop-color="#fff" stop-opacity="0"/></linearGradient><linearGradient id="linear-gradient-2" x1="549.01" y1="238.8" x2="658.88" y2="449.47" gradientTransform="translate(595.58 -343.74) rotate(48.19)" gradientUnits="userSpaceOnUse"><stop offset="0" stop-color="#cfd1d2"/><stop offset="1" stop-color="#231f20" stop-opacity="0"/></linearGradient><linearGradient id="linear-gradient-3" x1="552.74" y1="236.86" x2="662.61" y2="447.53" gradientTransform="translate(604.44 -347.71) rotate(48.19)" xlink:href="#linear-gradient-2"/><linearGradient id="linear-gradient-4" x1="582" y1="221.59" x2="691.87" y2="432.26" gradientTransform="matrix(1, 0, 0, 1, 0, 0)" xlink:href="#linear-gradient-2"/></defs><title>review</title><g id="Layer_2" data-name="Layer 2"><g id="Coding"><path class="cls-2" d="M635.67,419.08V304.56A116.1,116.1,0,0,0,467.75,448.28H606.47A29.29,29.29,0,0,0,635.67,419.08Z"/><rect class="cls-3" x="667.29" y="485.78" width="27.43" height="14.5" transform="translate(-140.49 671.9) rotate(-48.19)"/><rect class="cls-3" x="671.15" y="495.59" width="34.42" height="8.04" transform="translate(-142.94 679.56) rotate(-48.19)"/><path class="cls-4" d="M812.73,582.25a14.42,14.42,0,0,1,1.42,20.34l-9.48,10.6a14.42,14.42,0,0,1-20.38.84L679,519.81c-6-5.39-.45-8.94,4.79-14.79l9.48-10.6c5.23-5.85,8.14-11.79,14.17-6.4Z"/><path class="cls-4" d="M476.1,321a133.5,133.5,0,1,0,188.5-10.5A133.5,133.5,0,0,0,476.1,321ZM658,483.65a110.5,110.5,0,1,1-8.69-156A110.5,110.5,0,0,1,658,483.65Z"/><path class="cls-3" d="M458.06,304.84A157.64,157.64,0,0,1,609.66,256V26.42A26.5,26.5,0,0,0,583.23,0H26.42A26.5,26.5,0,0,0,0,26.42V399.5a26.5,26.5,0,0,0,26.42,26.42H418.7A157.29,157.29,0,0,1,458.06,304.84Z"/><g class="cls-5"><g class="cls-6"><path class="cls-7" d="M476.1,321a133.5,133.5,0,1,0,188.5-10.5A133.5,133.5,0,0,0,476.1,321ZM658,483.65a110.5,110.5,0,1,1-8.69-156A110.5,110.5,0,0,1,658,483.65Z"/><rect class="cls-8" x="665.57" y="485.28" width="33.11" height="17.5" transform="translate(-140.86 673.07) rotate(-48.19)"/><rect class="cls-9" x="670.23" y="497.12" width="41.55" height="9.7" transform="translate(-143.83 682.32) rotate(-48.19)"/><path class="cls-10" d="M841.14,601.74a17.41,17.41,0,0,1,1.72,24.56l-11.44,12.79a17.41,17.41,0,0,1-24.6,1L679.66,526.37c-7.27-6.5-.54-10.79,5.78-17.85l11.44-12.79c6.32-7.06,9.83-14.23,17.1-7.73Z"/></g></g><path class="cls-4" d="M583.23,0H26.42A26.5,26.5,0,0,0,0,26.42V57.15H609.66V26.42A26.5,26.5,0,0,0,583.23,0Z"/><path class="cls-11" d="M150.52,251.93V227.59l95.24-51.1v31.83L180,239.63l65.81,31.57V303Z"/><path class="cls-11" d="M346.89,141.17,288.3,338.35H260.47L318.8,141.17Z"/><path class="cls-11" d="M361.6,303V271.2l65.81-31.57-65.81-31.3V176.49l95.24,51.1v24.35Z"/><circle class="cls-12" cx="452.26" cy="28.85" r="17.17"/><circle class="cls-13" cx="500.7" cy="28.85" r="17.17"/><circle class="cls-14" cx="551.34" cy="28.85" r="17.17"/><path class="cls-3" d="M0,57.15V399.5a26.5,26.5,0,0,0,26.42,26.42H362.22c3.31-21.81,16.12-79.92,16.12-79.92S500.34,235.33,505,229.33c3.83-4.93,77.41-13.91,104.65-16.05V57.15ZM245.76,208.33,180,239.63l65.81,31.57V303l-95.24-51.1V227.59l95.24-51.1Zm42.53,130H260.47L318.8,141.17h28.09Zm168.54-86.41L361.6,303V271.2l65.81-31.57-65.81-31.3V176.49l95.24,51.1Z"/><circle class="cls-11" cx="452.26" cy="28.85" r="17.17"/><circle class="cls-11" cx="500.7" cy="28.85" r="17.17"/><circle class="cls-11" cx="551.34" cy="28.85" r="17.17"/></g></g></svg>