<?xml version="1.0" encoding="utf-8"?>
<!-- Generator: Adobe Illustrator 21.0.2, SVG Export Plug-In . SVG Version: 6.00 Build 0)  -->
<svg version="1.1" id="Capa_1" xmlns="http://www.w3.org/2000/svg" xmlns:xlink="http://www.w3.org/1999/xlink" x="0px" y="0px"
	 viewBox="0 0 278 406.7" style="enable-background:new 0 0 278 406.7;" xml:space="preserve">
<g>
	<path d="M0.4,74.7c-0.1,5.2,2,10.4,5.7,14l114.6,114.6L6.1,317.9c-3.6,3.6-5.7,8.7-5.7,13.7s2.1,10.1,5.7,13.7l55,55
		c3.6,3.6,8.7,5.7,13.8,5.7s10.2-2.1,13.8-5.7l183.3-183.3c3.6-3.6,5.7-8.7,5.7-13.8s-2.1-10.2-5.7-13.8L88.6,6.3
		C85,2.7,79.9,0.6,74.9,0.6S64.7,2.7,61.1,6.3l-55,55C2.6,64.8,0.5,69.8,0.4,74.7L0.4,74.7z"/>
</g>
</svg>
